# File created by Blade
# Date/Time:  Wed Jan 21 19:14:05 2015
#---------------------------------------------------------
:version 1.10
:name HOM
:units
  mass 1.0
  length 1.000000
  angle deg
:documentation
     Acclaim Skeleton File
:root
   axis xyz
   order TX TY TZ RX RY RZ
   position 0.000000 0.000000 0.000000
   orientation 0 0 0
:bonedata
   begin
      id 1
      name RightUpLeg_dum
      direction -1.000000 0.000000 0.000000
      length 3.693983
      axis 0.0 0.0 0.0 xyz
   end
   begin
      id 2
      name LeftUpLeg_dum
      direction 1.000000 0.000000 0.000000
      length 3.693983
      axis 0.0 0.0 0.0 xyz
   end
   begin
      id 3
      name Spine_dum
      direction 0.000000 1.000000 0.000000
      length 2.392956
      axis 0.0 0.0 0.0 xyz
   end
   begin
      id 4
      name RightUpLeg
      direction 0.000000 -1.000000 0.000000
      length 15.795667
      axis 0.0 0.0 0.0 xyz
      dof rx ry rz
   end
   begin
      id 5
      name RightLeg
      direction 0.000000 -1.000000 0.000000
      length 14.766989
      axis 0.0 0.0 0.0 xyz
      dof rx ry rz
   end
   begin
      id 6
      name RightFoot
      direction 0.000000 -0.258819 0.965926
      length 4.962790
      axis 15.0 0.0 0.0 xyz
      dof rx ry rz
   end
   begin
      id 7
      name RightToeBase
      direction 0.000000 0.000000 1.000000
      length 2.952750
      axis 0.0 0.0 0.0 xyz
      dof rx ry rz
   end
   begin
      id 8
      name LeftUpLeg
      direction 0.000000 -1.000000 0.000000
      length 15.795667
      axis 0.0 0.0 0.0 xyz
      dof rx ry rz
   end
   begin
      id 9
      name LeftLeg
      direction 0.000000 -1.000000 0.000000
      length 14.766989
      axis 0.0 0.0 0.0 xyz
      dof rx ry rz
   end
   begin
      id 10
      name LeftFoot
      direction 0.000000 -0.258819 0.965926
      length 4.962790
      axis 15.0 0.0 0.0 xyz
      dof rx ry rz
   end
   begin
      id 11
      name LeftToeBase
      direction 0.000000 0.000000 1.000000
      length 2.952750
      axis 0.0 0.0 0.0 xyz
      dof rx ry rz
   end
   begin
      id 12
      name Spine
      direction 0.000000 1.000000 0.000000
      length 0.000000
      axis 0.0 0.0 0.0 xyz
      dof rx ry rz
   end
   begin
      id 13
      name Spine_dum1
      direction 0.000000 1.000000 0.000000
      length 13.207411
      axis 0.0 0.0 0.0 xyz
   end
   begin
      id 14
      name Spine_dum2
      direction 0.000000 1.000000 0.000000
      length 13.207411
      axis 0.0 0.0 0.0 xyz
   end
   begin
      id 15
      name Spine_dum3
      direction 0.000000 1.000000 0.000000
      length 19.250100
      axis 0.0 0.0 0.0 xyz
   end
   begin
      id 16
      name RightShoulder
      direction -1.000000 0.000000 0.000000
      length 8.140465
      axis 0.0 0.0 90.0 xyz
      dof rx ry rz
   end
   begin
      id 17
      name RightArm
      direction -1.000000 0.000000 0.000000
      length 10.649840
      axis 0.0 0.0 90.0 xyz
      dof rx ry rz
   end
   begin
      id 18
      name RightForeArm
      direction -1.000000 0.000000 0.000000
      length 8.304624
      axis 0.0 0.0 90.0 xyz
      dof ry rz rx
   end
   begin
      id 19
      name RightHand
      direction -1.000000 0.000000 0.000000
      length 0.000000
      axis 0.0 0.0 90.0 xyz
      dof rx ry rz
   end
   begin
      id 20
      name RightHand_dum1
      direction -1.000000 0.000000 0.000000
      length 3.937000
      axis 0.0 0.0 90.0 xyz
   end
   begin
      id 21
      name RightHand_dum2
      direction 0.000000 0.000000 0.000000
      length 0.000000
      axis 0.0 0.0 90.0 xyz
   end
   begin
      id 22
      name RightHandThumb1
      direction 0.000000 0.000000 1.000000
      length 3.937000
      axis 0.0 0.0 90.0 xyz
      dof rx rz ry
   end
   begin
      id 23
      name LeftShoulder
      direction 1.000000 0.000000 0.000000
      length 8.140465
      axis 0.0 0.0 -90.0 xyz
      dof rx ry rz
   end
   begin
      id 24
      name LeftArm
      direction 1.000000 0.000000 0.000000
      length 10.649840
      axis 0.0 0.0 -90.0 xyz
      dof rx ry rz
   end
   begin
      id 25
      name LeftForeArm
      direction 1.000000 0.000000 0.000000
      length 8.304624
      axis 0.0 0.0 -90.0 xyz
      dof ry rz rx
   end
   begin
      id 26
      name LeftHand
      direction 1.000000 0.000000 0.000000
      length 0.000000
      axis 0.0 0.0 -90.0 xyz
      dof rx ry rz
   end
   begin
      id 27
      name LeftHand_dum1
      direction 1.000000 0.000000 0.000000
      length 3.937000
      axis 0.0 0.0 -90.0 xyz
   end
   begin
      id 28
      name LeftHand_dum2
      direction 0.000000 0.000000 0.000000
      length 0.000000
      axis 0.0 0.0 -90.0 xyz
   end
   begin
      id 29
      name LeftHandThumb1
      direction 0.000000 0.000000 1.000000
      length 3.937000
      axis 0.0 0.0 -90.0 xyz
      dof rx rz ry
   end
   begin
      id 30
      name Head
      direction 0.000000 1.000000 0.000000
      length 4.527550
      axis 0.0 0.0 0.0 xyz
      dof rx ry rz
   end
:hierarchy
   begin
      root RightUpLeg_dum LeftUpLeg_dum Spine_dum
      RightUpLeg_dum RightUpLeg
      LeftUpLeg_dum LeftUpLeg
      Spine_dum Spine
      RightUpLeg RightLeg
      RightLeg RightFoot
      RightFoot RightToeBase
      LeftUpLeg LeftLeg
      LeftLeg LeftFoot
      LeftFoot LeftToeBase
      Spine Spine_dum1 Spine_dum2 Spine_dum3
      Spine_dum1 RightShoulder
      Spine_dum2 LeftShoulder
      Spine_dum3 Head
      RightShoulder RightArm
      RightArm RightForeArm
      RightForeArm RightHand
      RightHand RightHand_dum1 RightHand_dum2
      RightHand_dum2 RightHandThumb1
      LeftShoulder LeftArm
      LeftArm LeftForeArm
      LeftForeArm LeftHand
      LeftHand LeftHand_dum1 LeftHand_dum2
      LeftHand_dum2 LeftHandThumb1
   end

# File created by Blade
# Date/Time:  Wed Jan 21 19:13:57 2015
# Frame Rate: 120.000 fps
#------------------------------------------------------
:FULLY-SPECIFIED
:DEGREES
580
root -7.293151 33.882728 -0.090000 26.102465 54.507859 -110.898911
RightUpLeg 9.601998 -5.439153 -24.036131
RightLeg 60.100660 -0.000000 -0.000000
RightFoot 26.155042 -24.579682 21.811898
RightToeBase 43.470993 -0.000000 -0.000000
LeftUpLeg -142.967860 31.716601 -20.090764
LeftLeg -9.202691 -0.000000 0.000000
LeftFoot -0.822437 -0.234664 -0.880838
LeftToeBase 5.139853 -0.000000 -0.000000
Spine -74.532502 -1.924417 24.552774
RightShoulder -35.341702 2.234216 -34.608869
RightArm -14.911873 -33.941239 47.695607
RightForeArm -21.275356 -0.000000 3.806285
RightHand 8.702472 -0.000000 20.894007
RightHandThumb1 -24.326973 -0.000000 -32.862282
LeftShoulder -22.369407 -12.817328 55.310099
LeftArm 45.845269 -32.950971 -16.230404
LeftForeArm 30.110765 -0.000000 20.314622
LeftHand -27.739761 -0.000000 18.607135
LeftHandThumb1 -26.253704 0.000000 33.147579
Head -38.304488 25.639871 38.199371
581
root -7.330126 33.876177 -0.075013 25.969851 54.524421 -111.126814
RightUpLeg 9.607138 -5.443978 -24.075087
RightLeg 59.976104 -0.000000 -0.000000
RightFoot 26.199972 -24.452371 21.397954
RightToeBase 43.340584 -0.000000 -0.000000
LeftUpLeg -143.171014 31.765236 -19.985512
LeftLeg -9.067272 -0.000000 0.000000
LeftFoot -0.962470 -0.098679 -0.364280
LeftToeBase 5.477398 -0.000000 -0.000000
Spine -74.520575 -1.826575 24.572902
RightShoulder -35.369316 2.323834 -34.676754
RightArm -15.012797 -33.895810 47.636383
RightForeArm -21.488644 -0.000000 4.000370
RightHand 8.577511 0.000000 21.045238
RightHandThumb1 -24.326973 -0.000000 -32.862282
LeftShoulder -22.399261 -12.872631 55.386424
LeftArm 45.619511 -32.978179 -16.106964
LeftForeArm 30.029478 -0.000000 20.068327
LeftHand -27.605305 -0.000000 18.138809
LeftHandThumb1 -26.253704 0.000000 33.147579
Head -38.407419 25.793169 38.214464
582
root -7.368211 33.867453 -0.056827 25.821268 54.518513 -111.292626
RightUpLeg 9.698086 -5.352695 -24.124941
RightLeg 59.846614 -0.000000 -0.000000
RightFoot 25.988941 -24.648094 21.583597
RightToeBase 43.293599 -0.000000 -0.000000
LeftUpLeg -143.304586 31.844045 -19.903347
LeftLeg -8.961341 -0.000000 0.000000
LeftFoot -0.937562 -0.047952 -0.284934
LeftToeBase 5.252503 -0.000000 -0.000000
Spine -74.467132 -1.755687 24.544522
RightShoulder -35.452852 2.220776 -34.631990
RightArm -14.805781 -33.857132 47.449735
RightForeArm -21.515997 -0.000000 4.092067
RightHand 8.615474 -0.000000 20.991484
RightHandThumb1 -24.326973 -0.000000 -32.862282
LeftShoulder -22.400495 -12.847038 55.363265
LeftArm 45.485305 -33.073526 -15.868479
LeftForeArm 29.916534 -0.000000 19.679321
LeftHand -27.437695 -0.000000 17.770252
LeftHandThumb1 -26.253704 0.000000 33.147579
Head -38.476042 25.900665 38.279283
583
root -7.405785 33.859294 -0.039217 25.729833 54.531876 -111.377273
RightUpLeg 9.837910 -5.267969 -24.196898
RightLeg 59.672628 -0.000000 -0.000000
RightFoot 26.067680 -24.535417 21.288511
RightToeBase 43.475276 -0.000000 -0.000000
LeftUpLeg -143.376672 31.897661 -19.833951
LeftLeg -8.913124 -0.000000 0.000000
LeftFoot -0.909823 0.041164 -0.134419
LeftToeBase 5.126648 -0.000000 -0.000000
Spine -74.423650 -1.717127 24.512583
RightShoulder -35.467040 2.237342 -34.684198
RightArm -14.847157 -33.756268 47.346677
RightForeArm -21.760955 -0.000000 4.309381
RightHand 8.536344 -0.000000 21.212166
RightHandThumb1 -24.326973 -0.000000 -32.862282
LeftShoulder -22.452521 -12.830213 55.341726
LeftArm 45.351452 -33.073602 -15.610976
LeftForeArm 29.684228 -0.000000 19.354829
LeftHand -27.340562 -0.000000 17.439784
LeftHandThumb1 -26.253704 0.000000 33.147579
Head -38.514526 26.023158 38.312257
584
root -7.444594 33.853311 -0.018124 25.620363 54.485943 -111.482027
RightUpLeg 9.933360 -5.109550 -24.234582
RightLeg 59.557354 -0.000000 -0.000000
RightFoot 26.126423 -24.533228 21.191895
RightToeBase 43.458959 -0.000000 -0.000000
LeftUpLeg -143.423896 32.074359 -19.743220
LeftLeg -8.888388 -0.000000 0.000000
LeftFoot -0.920066 0.259491 0.187053
LeftToeBase 5.178744 -0.000000 -0.000000
Spine -74.358872 -1.633926 24.454322
RightShoulder -35.466015 2.201551 -34.721540
RightArm -14.850609 -33.721662 47.280026
RightForeArm -21.820918 0.000000 4.454137
RightHand 8.560548 -0.000000 21.246824
RightHandThumb1 -24.326973 -0.000000 -32.862282
LeftShoulder -22.512629 -12.921911 55.403066
LeftArm 45.189637 -32.958504 -15.391159
LeftForeArm 29.521789 -0.000000 19.009519
LeftHand -27.282758 -0.000000 17.254065
LeftHandThumb1 -26.253704 0.000000 33.147579
Head -38.516991 26.142455 38.374063
585
root -7.482251 33.847391 0.003870 25.518120 54.382022 -111.566069
RightUpLeg 9.998422 -4.862354 -24.274363
RightLeg 59.469594 -0.000000 -0.000000
RightFoot 26.236124 -24.448537 21.127371
RightToeBase 43.450121 -0.000000 -0.000000
LeftUpLeg -143.475456 32.275824 -19.727363
LeftLeg -8.942045 -0.000000 0.000000
LeftFoot -0.783711 0.325745 0.252098
LeftToeBase 4.861758 -0.000000 -0.000000
Spine -74.271284 -1.516184 24.419574
RightShoulder -35.437191 2.191505 -34.792674
RightArm -14.840630 -33.841855 47.298844
RightForeArm -21.909041 0.000000 4.477446
RightHand 8.438538 -0.000000 21.276455
RightHandThumb1 -24.326973 -0.000000 -32.862282
LeftShoulder -22.571625 -12.914453 55.410003
LeftArm 45.015478 -32.922546 -15.143084
LeftForeArm 29.289402 -0.000000 18.681642
LeftHand -27.158718 0.000000 17.196605
LeftHandThumb1 -26.253704 0.000000 33.147579
Head -38.503000 26.354888 38.376124
586
root -7.516830 33.838753 0.026743 25.474668 54.278591 -111.503016
RightUpLeg 10.135186 -4.598085 -24.366942
RightLeg 59.391690 -0.000000 -0.000000
RightFoot 26.298943 -24.364261 21.189079
RightToeBase 43.572223 -0.000000 -0.000000
LeftUpLeg -143.369133 32.466820 -19.723362
LeftLeg -9.076106 -0.000000 0.000000
LeftFoot -0.758279 0.456513 0.594523
LeftToeBase 4.871494 -0.000000 -0.000000
Spine -74.177639 -1.457334 24.325828
RightShoulder -35.283461 2.152077 -34.872502
RightArm -14.964442 -33.987774 47.458537
RightForeArm -21.710248 0.000000 4.458210
RightHand 8.440317 -0.000000 21.364576
RightHandThumb1 -24.326973 -0.000000 -32.862282
LeftShoulder -22.637304 -12.803335 55.353246
LeftArm 45.002553 -33.016569 -15.044209
LeftForeArm 29.126534 -0.000000 18.423275
LeftHand -27.029506 0.000000 16.891928
LeftHandThumb1 -26.253704 0.000000 33.147579
Head -38.425640 26.423999 38.513787
587
root -7.548315 33.832850 0.053767 25.495405 54.154547 -111.417145
RightUpLeg 10.196391 -4.363129 -24.435423
RightLeg 59.357051 -0.000000 -0.000000
RightFoot 26.360135 -24.283661 21.143419
RightToeBase 43.622905 -0.000000 -0.000000
LeftUpLeg -143.276284 32.723738 -19.744964
LeftLeg -9.220023 -0.000000 0.000000
LeftFoot -0.653120 0.804661 0.717124
LeftToeBase 4.512727 -0.000000 -0.000000
Spine -74.134382 -1.372041 24.186753
RightShoulder -35.203596 2.018958 -34.866799
RightArm -14.906802 -34.101388 47.509024
RightForeArm -21.666859 -0.000000 4.375731
RightHand 8.394678 0.000000 21.370068
RightHandThumb1 -24.326973 -0.000000 -32.862282
LeftShoulder -22.613931 -12.506710 55.119280
LeftArm 44.984596 -33.317071 -14.714801
LeftForeArm 28.781578 -0.000000 18.092346
LeftHand -26.734142 -0.000000 16.535759
LeftHandThumb1 -26.253704 0.000000 33.147579
Head -38.332026 26.503028 38.627800
588
root -7.576224 33.826461 0.078892 25.537038 54.014807 -111.298068
RightUpLeg 10.222555 -4.114883 -24.500454
RightLeg 59.340681 -0.000000 -0.000000
RightFoot 26.572505 -24.126425 20.930713
RightToeBase 43.559076 -0.000000 -0.000000
LeftUpLeg -143.157189 32.981624 -19.778820
LeftLeg -9.408258 -0.000000 0.000000
LeftFoot -0.594845 1.014904 0.732257
LeftToeBase 4.373760 -0.000000 -0.000000
Spine -74.070877 -1.276234 24.057036
RightShoulder -35.149385 1.945105 -34.874010
RightArm -14.826831 -34.433929 47.614851
RightForeArm -21.407620 -0.000000 4.109947
RightHand 8.544711 -0.000000 21.348446
RightHandThumb1 -24.326973 -0.000000 -32.862282
LeftShoulder -22.715333 -12.446344 55.102819
LeftArm 44.991784 -33.403863 -14.732333
LeftForeArm 28.667430 -0.000000 17.897366
LeftHand -26.598193 -0.000000 16.380994
LeftHandThumb1 -26.253704 0.000000 33.147579
Head -38.273274 26.758561 38.689248
589
root -7.599523 33.819603 0.102166 25.625259 53.875067 -111.087698
RightUpLeg 10.253734 -3.911424 -24.609784
RightLeg 59.362495 -0.000000 -0.000000
RightFoot 26.620638 -24.074289 20.887408
RightToeBase 43.645944 -0.000000 -0.000000
LeftUpLeg -142.929988 33.272710 -19.768615
LeftLeg -9.563272 -0.000000 0.000000
LeftFoot -0.796534 1.572300 0.993165
LeftToeBase 4.699025 -0.000000 -0.000000
Spine -74.001368 -1.212549 23.862883
RightShoulder -35.140589 1.822793 -34.807814
RightArm -14.654919 -34.757329 47.672702
RightForeArm -21.139539 0.000000 3.768705
RightHand 8.695669 -0.000000 21.552708
RightHandThumb1 -24.326973 -0.000000 -32.862282
LeftShoulder -22.843116 -12.145701 54.932652
LeftArm 45.274095 -33.768133 -14.845525
LeftForeArm 28.432989 -0.000000 17.618763
LeftHand -26.421845 -0.000000 16.368066
LeftHandThumb1 -26.253704 0.000000 33.147579
Head -38.236470 27.029537 38.764661
590
root -7.617681 33.814998 0.126871 25.719929 53.753081 -110.901483
RightUpLeg 10.219161 -3.764151 -24.661683
RightLeg 59.408369 -0.000000 -0.000000
RightFoot 26.652490 -24.061970 20.793157
RightToeBase 43.778901 -0.000000 -0.000000
LeftUpLeg -142.808602 33.413806 -19.885510
LeftLeg -9.749897 -0.000000 0.000000
LeftFoot -0.784074 1.830161 1.006510
LeftToeBase 4.316981 -0.000000 -0.000000
Spine -73.962003 -1.127377 23.660478
RightShoulder -35.041426 1.816138 -34.763841
RightArm -14.845998 -34.786520 47.776997
RightForeArm -21.200085 0.000000 3.613678
RightHand 8.724403 -0.000000 21.447906
RightHandThumb1 -24.326973 -0.000000 -32.862282
LeftShoulder -22.937775 -11.949846 54.836528
LeftArm 45.441332 -34.090613 -15.090912
LeftForeArm 28.471369 -0.000000 17.572831
LeftHand -26.368983 -0.000000 16.244518
LeftHandThumb1 -26.253704 0.000000 33.147579
Head -38.240530 27.270711 38.824450
591
root -7.632650 33.811516 0.146391 25.878624 53.675139 -110.672594
RightUpLeg 10.135637 -3.732093 -24.742989
RightLeg 59.507255 -0.000000 -0.000000
RightFoot 26.686882 -23.982175 20.737486
RightToeBase 43.845230 -0.000000 -0.000000
LeftUpLeg -142.645287 33.565422 -19.921259
LeftLeg -9.849037 -0.000000 0.000000
LeftFoot -1.044367 2.370727 1.388576
LeftToeBase 4.729229 -0.000000 -0.000000
Spine -73.946542 -1.065286 23.493304
RightShoulder -34.910006 1.891709 -34.725009
RightArm -15.178226 -34.742659 47.924386
RightForeArm -21.272021 -0.000000 3.521360
RightHand 8.766340 -0.000000 21.348097
RightHandThumb1 -24.326973 -0.000000 -32.862282
LeftShoulder -23.052463 -11.697553 54.716392
LeftArm 45.513088 -34.380204 -15.203207
LeftForeArm 28.327981 -0.000000 17.528384
LeftHand -26.351220 -0.000000 16.300542
LeftHandThumb1 -26.253704 0.000000 33.147579
Head -38.277903 27.661367 38.807456
